<mxfile modified="2023-03-15T22:06:31.008Z" host="Electron" agent="5.0 (Windows NT 10.0; Win64; x64) AppleWebKit/537.36 (KHTML, like Gecko) draw.io/20.3.0 Chrome/104.0.5112.114 Electron/20.1.3 Safari/537.36" etag="gpQ-o7EgM8zzHvr2u87K" compressed="false" version="20.3.0" type="device">
  <diagram id="XQF8JAbR9p_stVk4NLC5" name="Delegations">
    <mxGraphModel dx="782" dy="517" grid="1" gridSize="10" guides="1" tooltips="1" connect="1" arrows="1" fold="1" page="1" pageScale="1" pageWidth="827" pageHeight="1169" math="0" shadow="0">
      <root>
        <mxCell id="cA6EnfzxyFlunogTbF0R-0" />
        <mxCell id="cA6EnfzxyFlunogTbF0R-1" parent="cA6EnfzxyFlunogTbF0R-0" />
        <mxCell id="c6N3yrrMn20inAgfai3b-18" style="edgeStyle=none;rounded=0;orthogonalLoop=1;jettySize=auto;html=1;entryX=0;entryY=0;entryDx=0;entryDy=0;endArrow=open;endFill=0;" parent="cA6EnfzxyFlunogTbF0R-1" source="c6N3yrrMn20inAgfai3b-0" target="c6N3yrrMn20inAgfai3b-5" edge="1">
          <mxGeometry relative="1" as="geometry" />
        </mxCell>
        <mxCell id="c6N3yrrMn20inAgfai3b-19" style="edgeStyle=none;rounded=0;orthogonalLoop=1;jettySize=auto;html=1;entryX=0;entryY=1;entryDx=0;entryDy=0;endArrow=open;endFill=0;" parent="cA6EnfzxyFlunogTbF0R-1" source="c6N3yrrMn20inAgfai3b-0" target="c6N3yrrMn20inAgfai3b-14" edge="1">
          <mxGeometry relative="1" as="geometry" />
        </mxCell>
        <mxCell id="c6N3yrrMn20inAgfai3b-20" style="edgeStyle=none;rounded=0;orthogonalLoop=1;jettySize=auto;html=1;entryX=0;entryY=0.75;entryDx=0;entryDy=0;endArrow=open;endFill=0;" parent="cA6EnfzxyFlunogTbF0R-1" source="c6N3yrrMn20inAgfai3b-0" target="c6N3yrrMn20inAgfai3b-9" edge="1">
          <mxGeometry relative="1" as="geometry" />
        </mxCell>
        <mxCell id="c6N3yrrMn20inAgfai3b-27" style="edgeStyle=none;rounded=0;orthogonalLoop=1;jettySize=auto;html=1;entryX=0;entryY=1;entryDx=0;entryDy=0;endArrow=open;endFill=0;" parent="cA6EnfzxyFlunogTbF0R-1" source="c6N3yrrMn20inAgfai3b-0" target="c6N3yrrMn20inAgfai3b-23" edge="1">
          <mxGeometry relative="1" as="geometry" />
        </mxCell>
        <mxCell id="c6N3yrrMn20inAgfai3b-0" value="&lt;p style=&quot;line-height: 100%&quot;&gt;&amp;lt;&amp;lt;actor&amp;gt;&amp;gt;&lt;b&gt;&lt;br&gt;Authenticated&lt;br&gt;User&lt;/b&gt;&lt;br&gt;&lt;/p&gt;" style="text;html=1;align=center;verticalAlign=middle;dashed=0;strokeColor=#000000;strokeWidth=2;" parent="cA6EnfzxyFlunogTbF0R-1" vertex="1">
          <mxGeometry x="120" y="240" width="80" height="60" as="geometry" />
        </mxCell>
        <mxCell id="c6N3yrrMn20inAgfai3b-1" value="" style="fontStyle=1;align=center;verticalAlign=top;childLayout=stackLayout;horizontal=1;horizontalStack=0;resizeParent=1;resizeParentMax=0;resizeLast=0;marginBottom=0;strokeColor=#82b366;strokeWidth=2;fillColor=none;" parent="cA6EnfzxyFlunogTbF0R-1" vertex="1">
          <mxGeometry x="240" y="120" width="120" height="63" as="geometry" />
        </mxCell>
        <mxCell id="c6N3yrrMn20inAgfai3b-2" value="Invite User&amp;nbsp;&lt;br&gt;as Group Role&lt;br&gt;Delegate" style="html=1;align=left;spacingLeft=4;verticalAlign=middle;strokeColor=none;fillColor=none;fontStyle=1" parent="c6N3yrrMn20inAgfai3b-1" vertex="1">
          <mxGeometry width="120" height="30" as="geometry" />
        </mxCell>
        <mxCell id="c6N3yrrMn20inAgfai3b-3" value="" style="shape=ellipse;" parent="c6N3yrrMn20inAgfai3b-2" vertex="1">
          <mxGeometry x="1" width="10" height="16" relative="1" as="geometry">
            <mxPoint x="-25" y="7" as="offset" />
          </mxGeometry>
        </mxCell>
        <mxCell id="c6N3yrrMn20inAgfai3b-4" value="" style="line;strokeWidth=1;fillColor=none;align=left;verticalAlign=middle;spacingTop=-1;spacingLeft=3;spacingRight=3;rotatable=0;labelPosition=right;points=[];portConstraint=eastwest;" parent="c6N3yrrMn20inAgfai3b-1" vertex="1">
          <mxGeometry y="30" width="120" height="8" as="geometry" />
        </mxCell>
        <mxCell id="c6N3yrrMn20inAgfai3b-5" value="." style="html=1;align=center;spacingLeft=4;verticalAlign=top;strokeColor=none;fillColor=none;" parent="c6N3yrrMn20inAgfai3b-1" vertex="1">
          <mxGeometry y="38" width="120" height="25" as="geometry" />
        </mxCell>
        <mxCell id="c6N3yrrMn20inAgfai3b-8" value="" style="fontStyle=1;align=center;verticalAlign=top;childLayout=stackLayout;horizontal=1;horizontalStack=0;resizeParent=1;resizeParentMax=0;resizeLast=0;marginBottom=0;strokeColor=#82b366;strokeWidth=2;fillColor=none;" parent="cA6EnfzxyFlunogTbF0R-1" vertex="1">
          <mxGeometry x="240" y="350" width="120" height="63" as="geometry" />
        </mxCell>
        <mxCell id="c6N3yrrMn20inAgfai3b-9" value="Remove Group &lt;br&gt;Role Delegation" style="html=1;align=left;spacingLeft=4;verticalAlign=middle;strokeColor=none;fillColor=none;fontStyle=1" parent="c6N3yrrMn20inAgfai3b-8" vertex="1">
          <mxGeometry width="120" height="30" as="geometry" />
        </mxCell>
        <mxCell id="c6N3yrrMn20inAgfai3b-10" value="" style="shape=ellipse;" parent="c6N3yrrMn20inAgfai3b-9" vertex="1">
          <mxGeometry x="1" width="10" height="16" relative="1" as="geometry">
            <mxPoint x="-25" y="7" as="offset" />
          </mxGeometry>
        </mxCell>
        <mxCell id="c6N3yrrMn20inAgfai3b-11" value="" style="line;strokeWidth=1;fillColor=none;align=left;verticalAlign=middle;spacingTop=-1;spacingLeft=3;spacingRight=3;rotatable=0;labelPosition=right;points=[];portConstraint=eastwest;" parent="c6N3yrrMn20inAgfai3b-8" vertex="1">
          <mxGeometry y="30" width="120" height="8" as="geometry" />
        </mxCell>
        <mxCell id="c6N3yrrMn20inAgfai3b-12" value="." style="html=1;align=center;spacingLeft=4;verticalAlign=top;strokeColor=none;fillColor=none;" parent="c6N3yrrMn20inAgfai3b-8" vertex="1">
          <mxGeometry y="38" width="120" height="25" as="geometry" />
        </mxCell>
        <mxCell id="c6N3yrrMn20inAgfai3b-13" value="" style="fontStyle=1;align=center;verticalAlign=top;childLayout=stackLayout;horizontal=1;horizontalStack=0;resizeParent=1;resizeParentMax=0;resizeLast=0;marginBottom=0;strokeColor=#82b366;strokeWidth=2;fillColor=none;" parent="cA6EnfzxyFlunogTbF0R-1" vertex="1">
          <mxGeometry x="240" y="280" width="120" height="63" as="geometry" />
        </mxCell>
        <mxCell id="c6N3yrrMn20inAgfai3b-14" value="Revoke Single&lt;br&gt;Permissions&lt;br&gt;from Delegation" style="html=1;align=left;spacingLeft=4;verticalAlign=middle;strokeColor=none;fillColor=none;fontStyle=1" parent="c6N3yrrMn20inAgfai3b-13" vertex="1">
          <mxGeometry width="120" height="30" as="geometry" />
        </mxCell>
        <mxCell id="c6N3yrrMn20inAgfai3b-15" value="" style="shape=ellipse;" parent="c6N3yrrMn20inAgfai3b-14" vertex="1">
          <mxGeometry x="1" width="10" height="16" relative="1" as="geometry">
            <mxPoint x="-25" y="7" as="offset" />
          </mxGeometry>
        </mxCell>
        <mxCell id="c6N3yrrMn20inAgfai3b-16" value="" style="line;strokeWidth=1;fillColor=none;align=left;verticalAlign=middle;spacingTop=-1;spacingLeft=3;spacingRight=3;rotatable=0;labelPosition=right;points=[];portConstraint=eastwest;" parent="c6N3yrrMn20inAgfai3b-13" vertex="1">
          <mxGeometry y="30" width="120" height="8" as="geometry" />
        </mxCell>
        <mxCell id="c6N3yrrMn20inAgfai3b-17" value="." style="html=1;align=center;spacingLeft=4;verticalAlign=top;strokeColor=none;fillColor=none;" parent="c6N3yrrMn20inAgfai3b-13" vertex="1">
          <mxGeometry y="38" width="120" height="25" as="geometry" />
        </mxCell>
        <mxCell id="c6N3yrrMn20inAgfai3b-22" value="" style="fontStyle=1;align=center;verticalAlign=top;childLayout=stackLayout;horizontal=1;horizontalStack=0;resizeParent=1;resizeParentMax=0;resizeLast=0;marginBottom=0;strokeColor=#82b366;strokeWidth=2;fillColor=none;" parent="cA6EnfzxyFlunogTbF0R-1" vertex="1">
          <mxGeometry x="240" y="200" width="120" height="63" as="geometry" />
        </mxCell>
        <mxCell id="c6N3yrrMn20inAgfai3b-23" value="Accept Group &lt;br&gt;Role Delegation" style="html=1;align=left;spacingLeft=4;verticalAlign=middle;strokeColor=none;fillColor=none;fontStyle=1" parent="c6N3yrrMn20inAgfai3b-22" vertex="1">
          <mxGeometry width="120" height="30" as="geometry" />
        </mxCell>
        <mxCell id="c6N3yrrMn20inAgfai3b-24" value="" style="shape=ellipse;" parent="c6N3yrrMn20inAgfai3b-23" vertex="1">
          <mxGeometry x="1" width="10" height="16" relative="1" as="geometry">
            <mxPoint x="-25" y="7" as="offset" />
          </mxGeometry>
        </mxCell>
        <mxCell id="c6N3yrrMn20inAgfai3b-25" value="" style="line;strokeWidth=1;fillColor=none;align=left;verticalAlign=middle;spacingTop=-1;spacingLeft=3;spacingRight=3;rotatable=0;labelPosition=right;points=[];portConstraint=eastwest;" parent="c6N3yrrMn20inAgfai3b-22" vertex="1">
          <mxGeometry y="30" width="120" height="8" as="geometry" />
        </mxCell>
        <mxCell id="c6N3yrrMn20inAgfai3b-26" value="." style="html=1;align=center;spacingLeft=4;verticalAlign=top;strokeColor=none;fillColor=none;" parent="c6N3yrrMn20inAgfai3b-22" vertex="1">
          <mxGeometry y="38" width="120" height="25" as="geometry" />
        </mxCell>
        <mxCell id="LnbOCRWHC17CPg_30FOa-0" value="Title" parent="cA6EnfzxyFlunogTbF0R-0" visible="0" />
        <mxCell id="UTAbv-rFCOtuhFzEheP9-9" value="&lt;font style=&quot;font-size: 12px&quot;&gt;&lt;span style=&quot;font-size: 12px&quot;&gt;Diagram: Base System Logical Module -&amp;nbsp;&lt;/span&gt;&lt;span style=&quot;font-size: 12px&quot;&gt;Functionality -&amp;nbsp;&lt;/span&gt;Users - Delegation&lt;/font&gt;" style="text;strokeColor=none;fillColor=none;html=1;fontSize=12;fontStyle=2;verticalAlign=middle;align=left;shadow=0;glass=0;comic=0;opacity=30;fontColor=#808080;" parent="LnbOCRWHC17CPg_30FOa-0" vertex="1">
          <mxGeometry x="120" y="440" width="520" height="40" as="geometry" />
        </mxCell>
        <mxCell id="LnbOCRWHC17CPg_30FOa-1" value="Notes" parent="cA6EnfzxyFlunogTbF0R-0" />
        <mxCell id="c6N3yrrMn20inAgfai3b-21" value="Delegation&lt;br&gt;is limited to parent &lt;br&gt;Delegation Root Group (can be Tenancy).&lt;br&gt;&lt;br&gt;Or Support Specialists.&lt;br&gt;&lt;br&gt;Delegations always have a Max Duration.&lt;br&gt;&lt;br&gt;Delegations Invitations must be Accepted." style="shape=note;size=20;whiteSpace=wrap;html=1;dashed=1;strokeWidth=1;fillColor=none;verticalAlign=top;" parent="LnbOCRWHC17CPg_30FOa-1" vertex="1">
          <mxGeometry x="440" y="200" width="120" height="220" as="geometry" />
        </mxCell>
      </root>
    </mxGraphModel>
  </diagram>
</mxfile>
